<svg xmlns="http://www.w3.org/2000/svg" xml:space="preserve" width="16" height="16" data-version="2">
    <path d="M4.36 4.97q0-.85.73-1.41Q5.82 3 6.9 3q.84 0 1.3.34.47.34.47.98 0 .5-.25.8-.24.31-.65.31-.16 0-.28-.05-.13-.06-.23-.18.22-.13.36-.4.14-.26.14-.55 0-.35-.21-.54-.21-.19-.61-.19-.47 0-.74.26-.27.27-.27.74 0 .38.2.73t.86.93q.87.76 1.14 1.31.28.56.28 1.24 0 1.26-.87 2-.87.75-2.22.75-1.08 0-1.71-.49-.63-.5-.63-1.4 0-.79.48-1.3.47-.5 1.14-.5.42 0 .68.19.27.19.29.53-.57 0-.93.28-.36.27-.36.76 0 .46.29.75.28.3.77.3.57 0 .92-.39.35-.4.35-1.07 0-.52-.23-.99t-.95-1.27q-.66-.7-.87-1.1-.2-.4-.2-.81" paint-order="stroke"/>
    <rect width="5.69" height="8.48" x="-2.845" y="-4.24" fill="none" rx="0" ry="0" transform="translate(6.325 7.74)"/>
    <path d="M9.88 8.65q0 .92.32 1.32t1 .4q.63 0 1.19-.29.57-.29.96-.81l.25.11q-.36.94-1.26 1.49-.9.56-1.88.56-1.27 0-1.84-.65-.57-.64-.57-2.06 0-.91.24-1.9.23-.99.63-1.77.53-1 1.28-1.53.76-.52 1.69-.52.88 0 1.36.38.48.38.48 1.09 0 .5-.2.76t-.57.26q-.19 0-.35-.07-.16-.08-.28-.22.2-.1.36-.4.15-.3.15-.61 0-.32-.18-.5-.17-.17-.49-.17-.49 0-.96.59-.47.58-.82 1.62-.25.7-.38 1.47-.13.76-.13 1.45" paint-order="stroke"/>
    <rect width="5.68" height="8.43" x="-2.84" y="-4.215" fill="none" rx="0" ry="0" transform="translate(11.39 7.715)"/>
</svg>
